<svg width="24" height="24" viewBox="0 0 24 24" fill="none" xmlns="http://www.w3.org/2000/svg"><g fill="#718096"><path d="M7 10a3 3 0 1 0 0-6 3 3 0 0 0 0 6ZM17 10a3 3 0 1 0 0-6 3 3 0 0 0 0 6ZM12 9a3.5 3.5 0 1 0 0-7 3.5 3.5 0 0 0 0 7ZM2 20v-4c0-2.5 2-4.5 4.5-4.5H8c-1.2 1.1-2 2.7-2 4.5v4H2ZM22 20v-4c0-2.5-2-4.5-4.5-4.5H16c1.2 1.1 2 2.7 2 4.5v4h4ZM7.5 20v-4.2c0-2.5 2-4.5 4.5-4.5s4.5 2 4.5 4.5V20h-9Z"/></g><path d="m4 2 .5 1 1 .2-.75.7.2 1-1-.5-1 .5.2-1-.75-.7 1-.2.6-1ZM20 2l.5 1 1 .2-.75.7.2 1-1-.5-1 .5.2-1-.75-.7 1-.2.6-1Z" fill="#718096"/></svg>
